<svg width="28" height="28" viewBox="0 0 28 28" fill="none" xmlns="http://www.w3.org/2000/svg">
<path d="M15.444 5.35714C15.444 7.97208 13.7639 9.71429 12.1107 9.71429C10.4574 9.71429 8.77734 7.97208 8.77734 5.35714C8.77734 2.74221 10.4574 1 12.1107 1C13.7639 1 15.444 2.74221 15.444 5.35714Z" stroke="#2D2D2D" stroke-width="2"/>
<path d="M15.444 5.35714C15.444 7.97208 13.7639 9.71429 12.1107 9.71429C10.4574 9.71429 8.77734 7.97208 8.77734 5.35714C8.77734 2.74221 10.4574 1 12.1107 1C13.7639 1 15.444 2.74221 15.444 5.35714Z" stroke="black" stroke-opacity="0.2" stroke-width="2"/>
<path d="M15.444 5.35714C15.444 7.97208 13.7639 9.71429 12.1107 9.71429C10.4574 9.71429 8.77734 7.97208 8.77734 5.35714C8.77734 2.74221 10.4574 1 12.1107 1C13.7639 1 15.444 2.74221 15.444 5.35714Z" stroke="black" stroke-opacity="0.2" stroke-width="2"/>
<path d="M20.8248 18.5544L21.5072 17.8233L20.8248 18.5544C21.0706 18.7837 21.2222 19.1487 21.2222 19.6097V23.9999H3V19.6097C3 19.1487 3.15163 18.7837 3.39738 18.5544C4.59709 17.4345 7.49704 15.2856 12.1111 15.2856C16.7252 15.2856 19.6251 17.4345 20.8248 18.5544Z" stroke="#2D2D2D" stroke-width="2"/>
<path d="M20.8248 18.5544L21.5072 17.8233L20.8248 18.5544C21.0706 18.7837 21.2222 19.1487 21.2222 19.6097V23.9999H3V19.6097C3 19.1487 3.15163 18.7837 3.39738 18.5544C4.59709 17.4345 7.49704 15.2856 12.1111 15.2856C16.7252 15.2856 19.6251 17.4345 20.8248 18.5544Z" stroke="black" stroke-opacity="0.2" stroke-width="2"/>
<path d="M20.8248 18.5544L21.5072 17.8233L20.8248 18.5544C21.0706 18.7837 21.2222 19.1487 21.2222 19.6097V23.9999H3V19.6097C3 19.1487 3.15163 18.7837 3.39738 18.5544C4.59709 17.4345 7.49704 15.2856 12.1111 15.2856C16.7252 15.2856 19.6251 17.4345 20.8248 18.5544Z" stroke="black" stroke-opacity="0.2" stroke-width="2"/>
<path d="M23.667 3.57178V14.2861" stroke="#2D2D2D" stroke-width="2"/>
<path d="M23.667 3.57178V14.2861" stroke="black" stroke-opacity="0.2" stroke-width="2"/>
<path d="M23.667 3.57178V14.2861" stroke="black" stroke-opacity="0.2" stroke-width="2"/>
<path d="M19.333 8.92822H27.9997" stroke="#2D2D2D" stroke-width="2"/>
<path d="M19.333 8.92822H27.9997" stroke="black" stroke-opacity="0.2" stroke-width="2"/>
<path d="M19.333 8.92822H27.9997" stroke="black" stroke-opacity="0.2" stroke-width="2"/>
</svg>
