<svg width="17" height="16" viewBox="0 0 17 16" fill="none" xmlns="http://www.w3.org/2000/svg">
<path d="M14.3981 8.89981C13.9614 11.7865 11.4566 13.9997 8.43197 13.9997C5.09974 13.9997 2.39844 11.3134 2.39844 7.99984C2.39844 4.68622 5.09974 2 8.43197 2C10.9061 2 13.0324 3.48087 13.9635 5.5999" stroke="#2D2D2D" stroke-linecap="round" stroke-linejoin="round"/>
<path d="M14.3981 8.89981C13.9614 11.7865 11.4566 13.9997 8.43197 13.9997C5.09974 13.9997 2.39844 11.3134 2.39844 7.99984C2.39844 4.68622 5.09974 2 8.43197 2C10.9061 2 13.0324 3.48087 13.9635 5.5999" stroke="black" stroke-opacity="0.2" stroke-linecap="round" stroke-linejoin="round"/>
<path d="M14.3981 8.89981C13.9614 11.7865 11.4566 13.9997 8.43197 13.9997C5.09974 13.9997 2.39844 11.3134 2.39844 7.99984C2.39844 4.68622 5.09974 2 8.43197 2C10.9061 2 13.0324 3.48087 13.9635 5.5999" stroke="black" stroke-opacity="0.2" stroke-linecap="round" stroke-linejoin="round"/>
<path d="M14.4066 2.31641V6.10578H10.6172" stroke="#2D2D2D" stroke-linejoin="round"/>
<path d="M14.4066 2.31641V6.10578H10.6172" stroke="black" stroke-opacity="0.2" stroke-linejoin="round"/>
<path d="M14.4066 2.31641V6.10578H10.6172" stroke="black" stroke-opacity="0.2" stroke-linejoin="round"/>
</svg>
