<svg width="84" height="84" viewBox="0 0 84 84" fill="none" xmlns="http://www.w3.org/2000/svg">
<path d="M70.1119 48.4097C70.1119 47.719 69.8375 47.0567 69.3491 46.5683C68.8608 46.0799 68.1984 45.8055 67.5077 45.8055H57.091C56.4004 45.8055 55.738 46.0799 55.2496 46.5683C54.7612 47.0567 54.4869 47.719 54.4869 48.4097V71.8472H49.2785V15.4236C49.2785 12.8958 49.2716 11.2569 49.1119 10.0555C48.9591 8.92706 48.7126 8.57289 48.5147 8.37497C48.3167 8.17706 47.9626 7.93053 46.8341 7.77775C45.6292 7.61803 43.9938 7.61108 41.466 7.61108C38.9383 7.61108 37.2994 7.61803 36.098 7.77775C34.9695 7.93053 34.6153 8.17706 34.4174 8.37497C34.2195 8.57289 33.973 8.92706 33.8202 10.0555C33.6605 11.2604 33.6535 12.8958 33.6535 15.4236V71.8472H28.4452V31.0486C28.4452 30.3579 28.1708 29.6955 27.6825 29.2072C27.1941 28.7188 26.5317 28.4444 25.841 28.4444H15.4244C14.7337 28.4444 14.0713 28.7188 13.5829 29.2072C13.0946 29.6955 12.8202 30.3579 12.8202 31.0486V71.8472H6.74382C6.05315 71.8472 5.39077 72.1216 4.90239 72.6099C4.41402 73.0983 4.13965 73.7607 4.13965 74.4514C4.13965 75.142 4.41402 75.8044 4.90239 76.2928C5.39077 76.7812 6.05315 77.0555 6.74382 77.0555H76.1883C76.8789 77.0555 77.5413 76.7812 78.0297 76.2928C78.5181 75.8044 78.7924 75.142 78.7924 74.4514C78.7924 73.7607 78.5181 73.0983 78.0297 72.6099C77.5413 72.1216 76.8789 71.8472 76.1883 71.8472H70.1119V48.4097Z" fill="#A3A3A3"/>
</svg>
