<svg width="84" height="84" viewBox="0 0 84 84" fill="none" xmlns="http://www.w3.org/2000/svg">
<path d="M17.7419 6.93225L14.0752 10.5937L19.5309 16.0468L23.1924 12.3854L17.7419 6.93225ZM65.5934 6.93225L60.1377 12.3854L63.8018 16.0468L69.2549 10.5963L65.5934 6.93225ZM41.6663 8.55725C40.807 8.5642 39.9389 8.61975 39.0622 8.72392H38.9841C28.4216 9.93486 20.0153 18.4687 18.5544 28.9843C17.3877 37.4479 20.8773 45.1224 26.6924 50.0651C29.0707 52.0954 30.6796 54.881 31.2497 57.9557V73.5807H37.1872C38.0934 75.1354 39.7471 76.1849 41.6663 76.1849C43.5856 76.1849 45.2393 75.1354 46.1455 73.5807H52.083V63.164H52.3278V60.0703C52.3278 56.2526 54.3122 52.4036 57.5361 49.4114C61.8486 45.0937 65.1038 38.9609 65.1038 31.9166C65.1038 19.052 54.5153 8.43746 41.6663 8.55725ZM41.6663 13.7656C51.7314 13.625 59.8955 21.8645 59.8955 31.9166C59.8955 37.3698 57.3695 42.1718 53.8721 45.6666L53.9554 45.75C50.4812 48.956 48.2341 53.2734 47.6012 57.9583H36.2106C35.6377 53.4948 33.7236 49.1744 30.1064 46.0755C25.5049 42.1692 22.7627 36.2838 23.6794 29.638C24.8174 21.4349 31.4736 14.8385 39.6299 13.9349C40.3033 13.8415 40.9815 13.7858 41.6611 13.7682L41.6663 13.7656ZM5.20801 31.9166V37.125H13.0205V31.9166H5.20801ZM70.3122 31.9166V37.125H78.1247V31.9166H70.3122ZM19.5309 52.9948L14.0778 58.4453L17.7419 62.1093L23.1898 56.6562L19.5309 52.9948ZM63.8018 52.9948L60.1403 56.6562L65.5908 62.1093L69.2549 58.4453L63.8018 52.9948ZM36.458 63.1666H46.8747V68.375H36.458V63.1666Z" fill="#A3A3A3"/>
</svg>
