<svg width="84" height="84" viewBox="0 0 84 84" fill="none" xmlns="http://www.w3.org/2000/svg">
<mask id="mask0_148_172" style="mask-type:luminance" maskUnits="userSpaceOnUse" x="7" y="14" width="71" height="57">
<path d="M49.2779 14.5555H35.389C22.2952 14.5555 15.7466 14.5555 11.6807 18.625C8.75011 21.5521 7.93066 25.7673 7.7015 32.7847H76.9654C76.7362 25.7673 75.9168 21.5521 72.9862 18.625C68.9202 14.5555 62.3716 14.5555 49.2779 14.5555ZM35.389 70.1111H49.2779C62.3716 70.1111 68.9202 70.1111 72.9862 66.0417C77.0522 61.9722 77.0557 55.4271 77.0557 42.3333C77.0557 40.8009 77.0533 39.3542 77.0487 37.993H7.61816C7.61122 39.3542 7.6089 40.8009 7.61122 42.3333C7.61122 55.4271 7.61122 61.9757 11.6807 66.0417C15.7501 70.1076 22.2952 70.1111 35.389 70.1111Z" fill="white"/>
<path fill-rule="evenodd" clip-rule="evenodd" d="M18.8955 56.2222C18.8955 55.5315 19.1699 54.8692 19.6583 54.3808C20.1466 53.8924 20.809 53.618 21.4997 53.618H35.3886C36.0792 53.618 36.7416 53.8924 37.23 54.3808C37.7184 54.8692 37.9927 55.5315 37.9927 56.2222C37.9927 56.9129 37.7184 57.5753 37.23 58.0636C36.7416 58.552 36.0792 58.8264 35.3886 58.8264H21.4997C20.809 58.8264 20.1466 58.552 19.6583 58.0636C19.1699 57.5753 18.8955 56.9129 18.8955 56.2222ZM41.465 56.2222C41.465 55.5315 41.7393 54.8692 42.2277 54.3808C42.7161 53.8924 43.3785 53.618 44.0691 53.618H49.2775C49.9681 53.618 50.6305 53.8924 51.1189 54.3808C51.6073 54.8692 51.8816 55.5315 51.8816 56.2222C51.8816 56.9129 51.6073 57.5753 51.1189 58.0636C50.6305 58.552 49.9681 58.8264 49.2775 58.8264H44.0691C43.3785 58.8264 42.7161 58.552 42.2277 58.0636C41.7393 57.5753 41.465 56.9129 41.465 56.2222Z" fill="black"/>
</mask>
<g mask="url(#mask0_148_172)">
<path d="M0.666992 0.666626H84.0003V84H0.666992V0.666626Z" fill="#A3A3A3"/>
</g>
</svg>
