<svg width="83" height="83" viewBox="0 0 83 83" fill="none" xmlns="http://www.w3.org/2000/svg">
<path fill-rule="evenodd" clip-rule="evenodd" d="M55.4388 10.1071C56.3418 5.98162 62.2185 5.95695 63.161 10.0775L63.2004 10.2699L63.2893 10.6548C64.3748 15.2639 68.1051 18.7824 72.773 19.5967C77.0757 20.3467 77.0757 26.5251 72.773 27.2752C70.4786 27.6772 68.3538 28.7469 66.6643 30.3506C64.9747 31.9542 63.7956 34.0205 63.2745 36.291L63.156 36.7943C62.2185 40.9149 56.3467 40.8902 55.4388 36.7647L55.3451 36.3305C54.8469 34.0499 53.6806 31.9696 51.995 30.3549C50.3093 28.7403 48.1808 27.6647 45.8811 27.2653C41.5883 26.5201 41.5883 20.3517 45.8811 19.6065C48.1725 19.2088 50.2942 18.1397 51.9773 16.5346C53.6604 14.9295 54.8291 12.8608 55.3352 10.5907L55.4043 10.265L55.4388 10.1071ZM59.026 45.2328C56.6759 45.1822 54.4305 44.2505 52.7348 42.6223C52.3663 42.8721 52.0426 43.1824 51.7776 43.5402C49.5571 46.4813 46.9568 49.4866 44.0159 52.4228C41.7856 54.6533 39.5257 56.6815 37.2954 58.4925C35.0651 56.6815 32.8052 54.6533 30.5749 52.4228C28.439 50.2887 26.4133 48.047 24.5057 45.7065C26.3166 43.4711 28.3496 41.2159 30.5749 38.9854C33.3497 36.1927 36.3176 33.5988 39.4566 31.223C39.7812 30.985 40.0674 30.6987 40.3053 30.3742C39.3673 29.5189 38.6159 28.4792 38.098 27.3202C37.5801 26.1611 37.3069 24.9077 37.2954 23.6382C32.4549 20.2481 27.6686 17.7362 23.3955 16.4285C18.7672 15.0123 13.3394 14.6323 9.78182 18.1853C7.47751 20.4948 6.85085 23.6333 7.02849 26.6188C7.20612 29.6093 8.20778 32.8959 9.72261 36.2318C11.263 39.5537 13.1081 42.7255 15.2342 45.7065C13.1086 48.6844 11.2635 51.853 9.72261 55.1714C8.20778 58.5073 7.20612 61.7939 7.02849 64.7844C6.85085 67.7749 7.47257 70.9084 9.78182 73.2179C12.0911 75.5274 15.2293 76.1492 18.2145 75.9715C21.1998 75.7889 24.4909 74.7921 27.8265 73.2771C30.8364 71.9102 34.0388 70.0448 37.3004 67.765C40.557 70.0448 43.7544 71.9102 46.7693 73.2771C50.0999 74.7921 53.3911 75.7939 56.3813 75.9715C59.3714 76.1492 62.4998 75.5224 64.809 73.213C68.3667 69.6599 67.9867 64.2317 66.5706 59.6029C65.2186 55.1912 62.5886 50.2317 59.026 45.2328ZM21.2294 23.505C24.0715 24.3735 27.4614 26.0217 31.1325 28.4102C27.1241 31.8108 23.401 35.5342 20.0007 39.543C18.6641 37.5081 17.48 35.377 16.4579 33.1673C15.1602 30.3051 14.5237 27.9364 14.4151 26.1747C14.3115 24.4031 14.7457 23.6925 15.0171 23.4211C15.4612 22.977 17.0994 22.2466 21.2294 23.505ZM16.4579 58.2409C17.3658 56.2423 18.555 54.0957 20.0007 51.8651C23.4026 55.8742 27.1273 59.5976 31.1374 62.998C29.1044 64.3362 26.9752 65.5221 24.7673 66.5461C21.9054 67.8439 19.5369 68.4805 17.7754 68.5891C15.999 68.6927 15.2934 68.2585 15.022 67.987C14.7507 67.7156 14.3164 67.0001 14.4201 65.2334C14.5286 63.4717 15.1602 61.103 16.4629 58.2409H16.4579ZM49.8285 66.5461C47.6222 65.5219 45.4947 64.336 43.4633 62.998C47.4683 59.597 51.188 55.8736 54.5852 51.8651C56.9684 55.5415 58.6165 58.9317 59.4849 61.7742C60.7481 65.8996 60.0178 67.5429 59.5737 67.987C59.2974 68.2585 58.5869 68.6927 56.8204 68.5842C55.0539 68.4855 52.6904 67.8439 49.8285 66.5461ZM32.3611 45.7065C32.3611 44.3978 32.881 43.1426 33.8064 42.2171C34.7317 41.2917 35.9868 40.7718 37.2954 40.7718C38.6041 40.7718 39.8591 41.2917 40.7845 42.2171C41.7099 43.1426 42.2297 44.3978 42.2297 45.7065C42.2297 47.0153 41.7099 48.2705 40.7845 49.196C39.8591 50.1214 38.6041 50.6413 37.2954 50.6413C35.9868 50.6413 34.7317 50.1214 33.8064 49.196C32.881 48.2705 32.3611 47.0153 32.3611 45.7065Z" fill="#A3A3A3"/>
</svg>
