<svg width="84" height="84" viewBox="0 0 84 84" fill="none" xmlns="http://www.w3.org/2000/svg">
<path d="M58.7374 52.6943L63.9719 36.9864C68.5474 23.2672 70.8351 16.4076 67.2113 12.7872C63.5875 9.16672 56.7303 11.4512 43.0068 16.0263L27.3005 21.2602C16.2277 24.9508 10.6913 26.7992 9.12041 29.5046C8.38652 30.7694 8 32.2057 8 33.6679C8 35.1302 8.38652 36.5665 9.12041 37.8313C10.6913 40.5397 16.2277 42.385 27.3005 46.0787C28.6732 46.5362 30.2197 46.2068 31.2477 45.1911L48.0429 28.553C48.2637 28.3132 48.5308 28.1208 48.828 27.9872C49.1253 27.8537 49.4466 27.7818 49.7725 27.776C50.0983 27.7701 50.422 27.8304 50.7238 27.9532C51.0257 28.0761 51.2995 28.2588 51.5288 28.4905C51.758 28.7222 51.9378 28.9979 52.0574 29.3011C52.1769 29.6042 52.2338 29.9285 52.2244 30.2542C52.2151 30.58 52.1398 30.9004 52.003 31.1962C51.8663 31.492 51.6709 31.757 51.4288 31.9751L34.9081 48.3418C34.3579 48.9056 33.9744 49.6105 33.8 50.3787C33.6255 51.1468 33.667 51.9482 33.9198 52.6943C37.6107 63.766 39.4592 69.305 42.1649 70.8788C43.4302 71.6132 44.8671 72 46.3301 72C47.7931 72 49.2301 71.6132 50.4954 70.8788C53.2011 69.305 55.0435 63.7691 58.7374 52.6943Z" fill="#A3A3A3"/>
</svg>
