<svg width="84" height="84" viewBox="0 0 84 84" fill="none" xmlns="http://www.w3.org/2000/svg">
<path d="M51.8607 12.0014C51.7485 12.0219 51.6377 12.0496 51.529 12.0845H9.65356C9.57046 12.0805 9.48723 12.0805 9.40413 12.0845C8.74445 12.1473 8.13194 12.457 7.68706 12.9525C7.24217 13.4481 6.99709 14.0937 7.00003 14.7624V57.5268C7.00003 63.8602 10.5 67.7513 13.801 69.4089C17.0994 71.0666 20.2677 70.9996 20.2677 70.9996H63.0559C63.5203 70.9996 66.1765 70.93 69.1936 69.4089C72.3407 67.8209 75.6337 64.1628 75.907 58.3623V58.1963C75.9123 58.1374 75.9893 58.0892 75.9919 58.0276C76.0027 57.8885 76.0027 57.7489 75.9919 57.6098C75.9958 57.526 75.9958 57.442 75.9919 57.3581V28.1522C75.9919 28.1522 75.9813 26.2723 74.9968 24.3013C74.1026 22.5151 71.9532 20.5522 68.9441 20.204C68.6522 20.0932 68.3432 20.0352 68.0313 20.0327H54.7636V15.2632C54.7791 15.0966 54.7791 14.929 54.7636 14.7624C54.7706 14.651 54.7706 14.5392 54.7636 14.4277V14.1786L54.6814 14.0099V13.9269C54.6572 13.8416 54.6289 13.7576 54.5965 13.6752C54.5464 13.5882 54.4914 13.5042 54.432 13.4234C54.3616 13.2768 54.2781 13.137 54.1825 13.0057C54.1035 12.9448 54.0211 12.8885 53.9357 12.837C53.8352 12.7157 53.7242 12.6037 53.604 12.5022H53.5191C53.2447 12.306 52.9359 12.1642 52.609 12.0845C52.3647 12.021 52.1128 11.9931 51.8607 12.0014ZM12.3071 17.4404H49.4566V22.1268C49.3829 22.4854 49.3829 22.8555 49.4566 23.2141V57.5295C49.4566 60.9573 50.5339 63.6218 52.0279 65.6464H20.2677C20.2677 65.6464 19.063 65.6517 17.6142 65.2286C17.0999 65.0783 16.6 64.882 16.1202 64.6421C14.1142 63.6326 12.3071 62.1088 12.3071 57.5268V17.4404ZM17.6142 22.7963C16.1521 22.7963 14.9606 23.9987 14.9606 25.4743V30.8302C14.9606 32.3058 16.1521 33.5082 17.6142 33.5082H44.1495C45.6116 33.5082 46.803 32.3058 46.803 30.8302V25.4743C46.803 23.9987 45.6116 22.7963 44.1495 22.7963H17.6142ZM54.7636 25.3913H60.5696C60.0734 26.8588 60.0707 28.0692 60.0707 28.0692V54.9319C60.0707 55.6421 60.3503 56.3232 60.8479 56.8255C61.3455 57.3277 62.0205 57.6098 62.7242 57.6098C63.428 57.6098 64.1029 57.3277 64.6006 56.8255C65.0982 56.3232 65.3778 55.6421 65.3778 54.9319V28.1522C65.3831 28.0773 65.4441 27.4158 65.7917 26.7302C66.1606 26.0072 66.3463 25.4743 68.0313 25.4743C69.703 25.4743 69.8968 25.9831 70.2709 26.7302C70.6238 27.4399 70.6795 28.1603 70.6849 28.2353V57.6098C70.6809 57.6937 70.6809 57.7777 70.6849 57.8615C70.6132 62.1142 68.8486 63.5576 66.8691 64.5564C64.8524 65.5741 62.7242 65.6437 62.7242 65.6437C62.7242 65.6437 60.6014 65.5875 58.5768 64.5564C56.5521 63.5254 54.7636 62.0097 54.7636 57.5268V25.3913ZM16.8685 38.8641C16.1648 38.9639 15.5291 39.3417 15.1014 39.9145C14.6737 40.4873 14.4889 41.2081 14.5878 41.9183C14.6867 42.6285 15.0611 43.27 15.6286 43.7017C16.1962 44.1334 16.9104 44.3198 17.6142 44.22H25.5748C26.2785 44.22 26.9535 43.9379 27.4511 43.4356C27.9487 42.9334 28.2283 42.2523 28.2283 41.542C28.2283 40.8318 27.9487 40.1507 27.4511 39.6484C26.9535 39.1462 26.2785 38.8641 25.5748 38.8641H17.6142C17.5311 38.8601 17.4478 38.8601 17.3647 38.8641C17.2816 38.8601 17.1984 38.8601 17.1153 38.8641C17.0331 38.8602 16.9507 38.8602 16.8685 38.8641ZM32.7897 38.8641C32.086 38.9639 31.4503 39.3417 31.0226 39.9145C30.5949 40.4873 30.4101 41.2081 30.509 41.9183C30.6079 42.6285 30.9823 43.27 31.5498 43.7017C32.1174 44.1334 32.8316 44.3198 33.5354 44.22H44.1495C44.8533 44.22 45.5282 43.9379 46.0258 43.4356C46.5235 42.9334 46.803 42.2523 46.803 41.542C46.803 40.8318 46.5235 40.1507 46.0258 39.6484C45.5282 39.1462 44.8533 38.8641 44.1495 38.8641H33.5354C33.4523 38.8601 33.369 38.8601 33.2859 38.8641C33.2028 38.8601 33.1196 38.8601 33.0365 38.8641C32.9543 38.8602 32.8719 38.8602 32.7897 38.8641ZM16.8685 46.898C16.1648 46.9978 15.5291 47.3756 15.1014 47.9484C14.6737 48.5212 14.4889 49.2419 14.5878 49.9522C14.6867 50.6624 15.0611 51.3039 15.6286 51.7356C16.1962 52.1672 16.9104 52.3537 17.6142 52.2539H25.5748C26.2785 52.2539 26.9535 51.9718 27.4511 51.4695C27.9487 50.9673 28.2283 50.2862 28.2283 49.5759C28.2283 48.8657 27.9487 48.1845 27.4511 47.6823C26.9535 47.1801 26.2785 46.898 25.5748 46.898H17.6142C17.5311 46.894 17.4478 46.894 17.3647 46.898C17.2816 46.894 17.1984 46.894 17.1153 46.898C17.0331 46.8941 16.9507 46.8941 16.8685 46.898ZM32.7897 46.898C32.086 46.9978 31.4503 47.3756 31.0226 47.9484C30.5949 48.5212 30.4101 49.2419 30.509 49.9522C30.6079 50.6624 30.9823 51.3039 31.5498 51.7356C32.1174 52.1672 32.8316 52.3537 33.5354 52.2539H44.1495C44.8533 52.2539 45.5282 51.9718 46.0258 51.4695C46.5235 50.9673 46.803 50.2862 46.803 49.5759C46.803 48.8657 46.5235 48.1845 46.0258 47.6823C45.5282 47.1801 44.8533 46.898 44.1495 46.898H33.5354C33.4523 46.894 33.369 46.894 33.2859 46.898C33.2028 46.894 33.1196 46.894 33.0365 46.898C32.9543 46.8941 32.8719 46.8941 32.7897 46.898ZM18.1953 54.9319C17.4915 55.0316 16.8559 55.4095 16.4282 55.9823C16.0004 56.555 15.8157 57.2758 15.9146 57.9861C16.0135 58.6963 16.3878 59.3378 16.9554 59.7695C17.523 60.2011 18.2372 60.3876 18.9409 60.2878H25.5748C26.2785 60.2878 26.9535 60.0056 27.4511 59.5034C27.9487 59.0012 28.2283 58.3201 28.2283 57.6098C28.2283 56.8996 27.9487 56.2184 27.4511 55.7162C26.9535 55.214 26.2785 54.9319 25.5748 54.9319H18.9409C18.8578 54.9279 18.7746 54.9279 18.6915 54.9319C18.6093 54.928 18.5269 54.928 18.4447 54.9319C18.3616 54.9279 18.2784 54.9279 18.1953 54.9319ZM32.7897 54.9319C32.086 55.0316 31.4503 55.4095 31.0226 55.9823C30.5949 56.555 30.4101 57.2758 30.509 57.9861C30.6079 58.6963 30.9823 59.3378 31.5498 59.7695C32.1174 60.2011 32.8316 60.3876 33.5354 60.2878H44.1495C44.8533 60.2878 45.5282 60.0056 46.0258 59.5034C46.5235 59.0012 46.803 58.3201 46.803 57.6098C46.803 56.8996 46.5235 56.2184 46.0258 55.7162C45.5282 55.214 44.8533 54.9319 44.1495 54.9319H33.5354C33.4523 54.9279 33.369 54.9279 33.2859 54.9319C33.2028 54.9279 33.1196 54.9279 33.0365 54.9319C32.9543 54.928 32.8719 54.928 32.7897 54.9319Z" fill="#A3A3A3"/>
</svg>
