<svg width="84" height="84" viewBox="0 0 84 84" fill="none" xmlns="http://www.w3.org/2000/svg">
<g clip-path="url(#clip0_148_150)">
<path d="M42 12.3929C42 11.7582 41.7441 11.1496 41.2887 10.7009C40.8332 10.2521 40.2155 10 39.5714 10C38.9273 10 38.3096 10.2521 37.8542 10.7009C37.3987 11.1496 37.1429 11.7582 37.1429 12.3929V13.1905H18.5238C15.7327 13.1905 13.0559 14.2829 11.0824 16.2275C9.10875 18.1721 8 20.8095 8 23.5595V53.869C8 56.6191 9.10875 59.2565 11.0824 61.2011C13.0559 63.1456 15.7327 64.2381 18.5238 64.2381H26.2888L21.5126 69.8852C21.1003 70.3731 20.9017 71.0022 20.9603 71.6344C21.0189 72.2665 21.33 72.8498 21.825 73.256C22.3201 73.6621 22.9587 73.8579 23.6003 73.8001C24.2419 73.7424 24.8339 73.4359 25.2461 72.9481L32.6095 64.2381H43.9688C45.0503 60.5499 48.5021 57.8571 52.5951 57.8571H53.492C52.1584 56.5681 51.1688 54.9743 50.6114 53.2174C50.0541 51.4605 49.9461 49.5952 50.2971 47.7872C50.6482 45.9793 51.4474 44.285 52.6237 42.8549C53.7999 41.4249 55.3167 40.3035 57.0391 39.5906C58.7614 38.8776 60.636 38.5953 62.4958 38.7686C64.3557 38.942 66.1433 39.5656 67.6994 40.5841C69.2556 41.6026 70.532 42.9843 71.4153 44.6063C72.2985 46.2283 72.7611 48.0402 72.7619 49.881V23.5595C72.7619 22.1978 72.4897 20.8495 71.9608 19.5915C71.432 18.3334 70.6568 17.1904 69.6796 16.2275C68.7023 15.2646 67.5422 14.5009 66.2654 13.9798C64.9886 13.4587 63.6201 13.1905 62.2381 13.1905H42V12.3929ZM20.9524 28.3452C20.9524 27.7106 21.2082 27.102 21.6637 26.6532C22.1191 26.2045 22.7369 25.9524 23.381 25.9524H36.3333C36.9774 25.9524 37.5951 26.2045 38.0506 26.6532C38.506 27.102 38.7619 27.7106 38.7619 28.3452C38.7619 28.9799 38.506 29.5885 38.0506 30.0372C37.5951 30.486 36.9774 30.7381 36.3333 30.7381H23.381C22.7369 30.7381 22.1191 30.486 21.6637 30.0372C21.2082 29.5885 20.9524 28.9799 20.9524 28.3452ZM23.381 35.5238H44.4286C45.0727 35.5238 45.6904 35.7759 46.1458 36.2247C46.6013 36.6734 46.8571 37.282 46.8571 37.9167C46.8571 38.5513 46.6013 39.1599 46.1458 39.6087C45.6904 40.0574 45.0727 40.3095 44.4286 40.3095H23.381C22.7369 40.3095 22.1191 40.0574 21.6637 39.6087C21.2082 39.1599 20.9524 38.5513 20.9524 37.9167C20.9524 37.282 21.2082 36.6734 21.6637 36.2247C22.1191 35.7759 22.7369 35.5238 23.381 35.5238ZM23.381 45.0952H41.1905C41.8346 45.0952 42.4523 45.3473 42.9077 45.7961C43.3632 46.2448 43.619 46.8535 43.619 47.4881C43.619 48.1227 43.3632 48.7313 42.9077 49.1801C42.4523 49.6288 41.8346 49.881 41.1905 49.881H23.381C22.7369 49.881 22.1191 49.6288 21.6637 49.1801C21.2082 48.7313 20.9524 48.1227 20.9524 47.4881C20.9524 46.8535 21.2082 46.2448 21.6637 45.7961C22.1191 45.3473 22.7369 45.0952 23.381 45.0952ZM69.5238 49.881C69.5238 51.9964 68.6709 54.0251 67.1528 55.521C65.6346 57.0168 63.5756 57.8571 61.4286 57.8571C59.2816 57.8571 57.2225 57.0168 55.7044 55.521C54.1862 54.0251 53.3333 51.9964 53.3333 49.881C53.3333 47.7655 54.1862 45.7368 55.7044 44.2409C57.2225 42.7451 59.2816 41.9048 61.4286 41.9048C63.5756 41.9048 65.6346 42.7451 67.1528 44.2409C68.6709 45.7368 69.5238 47.7655 69.5238 49.881ZM76 67.0298C76 71.9941 71.8358 77 61.4286 77C51.0213 77 46.8571 72.0133 46.8571 67.0298V66.7011C46.8571 63.5745 49.4282 61.0476 52.5983 61.0476H70.2589C73.4322 61.0476 76 63.5777 76 66.7011V67.0298Z" fill="#A3A3A3"/>
</g>
<defs>
<clipPath id="clip0_148_150">
<rect width="83.3333" height="83.3333" fill="white" transform="translate(0.666992 0.666626)"/>
</clipPath>
</defs>
</svg>
