<svg width="30" height="30" viewBox="0 0 30 30" fill="none" xmlns="http://www.w3.org/2000/svg">
<path d="M27.6562 0H2.34375C1.04875 0 0 1.05 0 2.34375V27.6562C0 28.9513 1.05 30 2.34375 30H27.6562C28.9513 30 30 28.95 30 27.6562V2.34375C30 1.04875 28.95 0 27.6562 0ZM15 23.4375C14.26 23.4375 13.5383 23.3875 12.835 23.2875C12.1325 23.7825 8.06875 26.6362 7.685 26.69C7.685 26.69 7.52875 26.7512 7.395 26.6725C7.26125 26.5938 7.285 26.3862 7.285 26.3862C7.325 26.1112 8.33875 22.6138 8.525 21.97C5.09375 20.27 2.8125 17.2587 2.8125 13.8287C2.8125 8.52125 8.26875 4.21875 15 4.21875C21.7313 4.21875 27.1875 8.52125 27.1875 13.8287C27.1875 19.1362 21.7313 23.4375 15 23.4375ZM10.0625 12.3337H8.965V16.5112C8.965 16.8813 8.65 17.1825 8.26125 17.1825C7.8725 17.1825 7.55875 16.8825 7.55875 16.5112V12.3337H6.46125C6.28752 12.3209 6.12508 12.2428 6.00653 12.1152C5.88797 11.9876 5.82208 11.8198 5.82208 11.6456C5.82208 11.4714 5.88797 11.3037 6.00653 11.176C6.12508 11.0484 6.28752 10.9703 6.46125 10.9575H10.0612C10.235 10.9703 10.3974 11.0484 10.516 11.176C10.6345 11.3037 10.7004 11.4714 10.7004 11.6456C10.7004 11.8198 10.6345 11.9876 10.516 12.1152C10.3974 12.2428 10.235 12.3209 10.0612 12.3337M23.795 16.03C23.851 16.1036 23.8919 16.1875 23.9153 16.277C23.9387 16.3665 23.9441 16.4597 23.9313 16.5513C23.9183 16.6426 23.8875 16.7304 23.8405 16.8098C23.7936 16.8892 23.7313 16.9585 23.6575 17.0138C23.536 17.106 23.3876 17.1561 23.235 17.1562C23.1259 17.1566 23.0182 17.1315 22.9206 17.0829C22.8229 17.0343 22.738 16.9635 22.6725 16.8763L21.0238 14.6925L20.78 14.9363V16.47C20.7797 16.6563 20.7056 16.8349 20.574 16.9668C20.4423 17.0987 20.2638 17.1731 20.0775 17.1737C19.8909 17.1737 19.7119 17.0996 19.5799 16.9676C19.4479 16.8356 19.3737 16.6566 19.3737 16.47V11.66C19.3814 11.4786 19.4588 11.3073 19.5898 11.1817C19.7209 11.056 19.8954 10.9859 20.0769 10.9859C20.2584 10.9859 20.4329 11.056 20.5639 11.1817C20.6949 11.3073 20.7724 11.4786 20.78 11.66V13.1725L22.7425 11.21C22.8462 11.1082 22.9859 11.0516 23.1312 11.0525C23.3062 11.0525 23.4837 11.1287 23.6162 11.2612C23.7364 11.3799 23.8097 11.5379 23.8225 11.7062C23.8288 11.7846 23.8183 11.8635 23.7915 11.9374C23.7648 12.0114 23.7225 12.0788 23.6675 12.135L22.065 13.7362L23.795 16.03ZM13.3575 11.6525C13.2387 11.315 12.8787 10.9675 12.42 10.9575C11.9625 10.9675 11.6025 11.315 11.4838 11.6512L9.8025 16.0775C9.58875 16.74 9.775 16.9875 9.96875 17.0775C10.1094 17.1397 10.2612 17.1725 10.415 17.1737C10.7087 17.1737 10.9325 17.055 11 16.8638L11.3488 15.9513H13.4925L13.8412 16.8638C13.9087 17.055 14.1325 17.1737 14.4263 17.1737C14.5801 17.1721 14.732 17.1389 14.8725 17.0763C15.0662 16.9875 15.2525 16.7413 15.0387 16.0763L13.3575 11.6525ZM11.7188 14.7063L12.4213 12.7112L13.1225 14.7063H11.7188ZM19.1 16.435C19.0954 16.6096 19.022 16.7754 18.8959 16.8962C18.7697 17.017 18.6009 17.083 18.4263 17.08H16.1712C15.9964 17.0834 15.8273 17.0174 15.7008 16.8966C15.5744 16.7758 15.5008 16.6098 15.4963 16.435V11.66C15.4963 11.2725 15.8188 10.9575 16.215 10.9575C16.6112 10.9575 16.9325 11.2725 16.9325 11.66V15.7913H18.4263C18.7975 15.7913 19.1012 16.08 19.1012 16.435" fill="black"/>
</svg>
