<svg width="25" height="24" viewBox="0 0 25 24" fill="none" xmlns="http://www.w3.org/2000/svg">
<path d="M17.9494 12.1973L9.60661 18.6862C9.4424 18.8139 9.20313 18.6969 9.20313 18.4888L9.20313 5.51116C9.20313 5.30312 9.4424 5.1861 9.60661 5.31382L17.9494 11.8027C18.0781 11.9028 18.0781 12.0972 17.9494 12.1973Z" stroke="#2D2D2D" stroke-width="1.6" stroke-linecap="round"/>
<path d="M17.9494 12.1973L9.60661 18.6862C9.4424 18.8139 9.20313 18.6969 9.20313 18.4888L9.20313 5.51116C9.20313 5.30312 9.4424 5.1861 9.60661 5.31382L17.9494 11.8027C18.0781 11.9028 18.0781 12.0972 17.9494 12.1973Z" stroke="black" stroke-opacity="0.2" stroke-width="1.6" stroke-linecap="round"/>
<path d="M17.9494 12.1973L9.60661 18.6862C9.4424 18.8139 9.20313 18.6969 9.20313 18.4888L9.20313 5.51116C9.20313 5.30312 9.4424 5.1861 9.60661 5.31382L17.9494 11.8027C18.0781 11.9028 18.0781 12.0972 17.9494 12.1973Z" stroke="black" stroke-opacity="0.2" stroke-width="1.6" stroke-linecap="round"/>
</svg>
