<svg width="110" height="110" viewBox="0 0 110 110" fill="none" xmlns="http://www.w3.org/2000/svg">
<path d="M99.3266 71.5988L87.0246 65.45C83.5909 63.7472 80.703 61.1165 78.6881 57.8562C76.6733 54.5958 75.6121 50.8362 75.625 47.0035V34.375C75.625 33.4633 75.2628 32.589 74.6182 31.9443C73.9735 31.2997 73.0992 30.9375 72.1875 30.9375C66.7192 30.9318 61.4764 28.757 57.6097 24.8903C53.743 21.0236 51.5682 15.7808 51.5625 10.3125C51.5619 9.67301 51.3829 9.04637 51.0457 8.50302C50.7085 7.95967 50.2264 7.52115 49.6537 7.23677C49.0809 6.9524 48.4401 6.83343 47.8034 6.89325C47.1668 6.95307 46.5594 7.1893 46.0496 7.57539L12.9465 32.6562L12.8605 32.725C12.1118 33.3315 11.4989 34.0886 11.0616 34.9471C10.6243 35.8057 10.3723 36.7467 10.3221 37.7089C10.2719 38.6712 10.4244 39.6332 10.77 40.5327C11.1155 41.4321 11.6462 42.2489 12.3277 42.9301L61.1875 91.807C61.507 92.1262 61.8862 92.3792 62.3035 92.5517C62.7208 92.7242 63.168 92.8129 63.6195 92.8125H96.25C98.0734 92.8125 99.822 92.0882 101.111 90.7989C102.401 89.5095 103.125 87.7609 103.125 85.9375V77.7477C103.129 76.4703 102.775 75.2174 102.104 74.1306C101.433 73.0439 100.471 72.1669 99.3266 71.5988ZM96.25 85.9375H65.0418L17.1875 38.0832L22.7176 33.8895L39.3852 50.557C40.0302 51.2032 40.9055 51.5666 41.8184 51.5675C42.7314 51.5683 43.6074 51.2063 44.2535 50.5613C44.8997 49.9163 45.2631 49.041 45.2639 48.128C45.2647 47.215 44.9028 46.3391 44.2578 45.693L28.2477 29.6957L45.4352 16.6719C46.7378 22.1142 49.6661 27.0311 53.8307 30.769C57.9954 34.5069 63.199 36.8886 68.75 37.5977V47.0035C68.7329 52.1141 70.1482 57.1272 72.8352 61.4744C75.5222 65.8216 79.3735 69.329 83.9523 71.5988L96.25 77.7477V85.9375ZM30.4219 79.0625H13.75C12.8383 79.0625 11.964 78.7003 11.3193 78.0557C10.6747 77.411 10.3125 76.5367 10.3125 75.625C10.3125 74.7133 10.6747 73.839 11.3193 73.1943C11.964 72.5497 12.8383 72.1875 13.75 72.1875H30.4219C31.3336 72.1875 32.2079 72.5497 32.8526 73.1943C33.4972 73.839 33.8594 74.7133 33.8594 75.625C33.8594 76.5367 33.4972 77.411 32.8526 78.0557C32.2079 78.7003 31.3336 79.0625 30.4219 79.0625ZM47.6094 89.375C47.6094 90.2867 47.2472 91.161 46.6026 91.8057C45.9579 92.4503 45.0836 92.8125 44.1719 92.8125H20.625C19.7133 92.8125 18.839 92.4503 18.1943 91.8057C17.5497 91.161 17.1875 90.2867 17.1875 89.375C17.1875 88.4633 17.5497 87.589 18.1943 86.9443C18.839 86.2997 19.7133 85.9375 20.625 85.9375H44.1719C45.0836 85.9375 45.9579 86.2997 46.6026 86.9443C47.2472 87.589 47.6094 88.4633 47.6094 89.375Z" fill="#555555"/>
</svg>
