<svg width="110" height="110" viewBox="0 0 110 110" fill="none" xmlns="http://www.w3.org/2000/svg">
<path d="M55 3.4375C44.6875 3.4375 37.8125 10.3125 37.8125 17.1875C37.8125 27.5 41.25 34.375 44.6875 37.8125V41.25H65.3125V37.8125C68.75 34.375 72.1875 27.5 72.1875 17.1875C72.1875 10.3125 65.3125 3.4375 55 3.4375ZM41.3359 17.4732L55 22.0215L68.6641 17.4732L60.2422 38.5215L56.6328 37.1035L61.9609 23.7832L55 26.1035L48.0391 23.7832L53.3672 37.1035L49.7578 38.5215L41.3359 17.4732ZM23.4395 34.4609C18.4121 35.1055 13.8574 41.0137 13.8574 48.6191C13.8574 52.8301 15.3184 56.5469 17.4453 59.125L20.002 62.1758L16.0703 62.9062C13.2988 63.4434 11.2793 64.9043 9.53906 67.2891C7.79883 69.6738 6.4668 72.9824 5.54297 76.8281C3.86719 83.7461 3.48047 92.2109 3.4375 99.6875H12.6328L13.1141 106.133H36.4375L36.8672 99.6875H45.6328C45.6328 92.125 45.5469 83.5527 44.0215 76.5488C43.1621 72.7031 41.8945 69.3945 40.1328 67.0312C38.3711 64.668 36.2441 63.207 33.1289 62.7344L29.1543 62.1113L31.668 58.9531C33.709 56.3965 35.084 52.7227 35.084 48.6191C35.084 40.498 30.0137 34.4824 24.4707 34.4824L23.4395 34.4609ZM84.3691 34.4609C79.3418 35.1055 74.7871 41.0137 74.7871 48.6191C74.7871 52.8301 76.248 56.5469 78.375 59.125L80.9316 62.1758L77 62.9062C74.2285 63.4434 72.209 64.9043 70.4688 67.2891C68.7285 69.6738 67.3965 72.9824 66.4727 76.8281C64.7969 83.7461 64.4102 92.2109 64.3672 99.6875H73.5625L74.0352 106.133H97.3672L97.7969 99.6875H106.562C106.562 92.125 106.477 83.5527 104.951 76.5488C104.092 72.7031 102.824 69.3945 101.062 67.0312C99.3008 64.668 97.1738 63.207 94.0586 62.7344L90.084 62.1113L92.5977 58.9531C94.6387 56.3965 96.0137 52.7227 96.0137 48.6191C96.0137 40.498 90.9434 34.4824 85.4004 34.4824L84.3691 34.4609ZM44.6875 44.9023V48.7695H65.3125V44.9023H44.6875ZM48.125 52.207V56.0742H61.875V52.207H48.125Z" fill="#555555"/>
</svg>
