<svg width="110" height="110" viewBox="0 0 110 110" fill="none" xmlns="http://www.w3.org/2000/svg">
<path d="M89.7531 74.4332H89.3321L89.2604 74.8481L86.2569 92.2409L76.4656 74.6896L76.3225 74.4332H76.0289H39.3086C37.9279 74.4332 36.8086 73.3139 36.8086 71.9332V64.691H77.1289H77.6289V64.191V30.9606H101.844C103.224 30.9606 104.344 32.0799 104.344 33.4606V71.9332C104.344 73.3139 103.224 74.4332 101.844 74.4332H89.7531ZM33.9732 60.2535H33.6796L33.5366 60.51L23.7431 78.0676L20.7374 60.6684L20.6658 60.2535H20.2447H8.15625C6.77554 60.2535 5.65625 59.1342 5.65625 57.7535V19.2809C5.65625 17.9002 6.77554 16.7809 8.15625 16.7809H70.6914C72.0721 16.7809 73.1914 17.9002 73.1914 19.2809V57.7535C73.1914 59.1342 72.0721 60.2535 70.6914 60.2535H33.9732ZM37.9341 44.2021L37.934 44.2022C36.0888 46.0601 37.4043 49.2223 40.0232 49.2223C41.6572 49.2223 42.9788 47.8919 42.9679 46.2577C42.9503 43.6388 39.7797 42.3444 37.9341 44.2021ZM29.8743 46.261C29.8743 43.6372 26.7023 42.3239 24.8474 44.1789C22.9925 46.0337 24.3057 49.206 26.9296 49.206C28.5561 49.206 29.8743 47.8874 29.8743 46.261ZM56.0616 46.261C56.0616 43.6372 52.8896 42.3239 51.0347 44.1789C49.1798 46.0337 50.493 49.206 53.1169 49.206C54.7431 49.206 56.0616 47.8874 56.0616 46.261Z" fill="#555555" stroke="#555555"/>
</svg>
