<svg width="110" height="110" viewBox="0 0 110 110" fill="none" xmlns="http://www.w3.org/2000/svg">
<g clip-path="url(#clip0_276_3029)">
<path fill-rule="evenodd" clip-rule="evenodd" d="M78.5484 1.7286C79.3733 0.901303 80.4254 0.337851 81.5712 0.109815C82.717 -0.118221 83.9047 -0.000549227 84.9834 0.447882L101.696 7.37788C103.137 7.97298 104.283 9.11502 104.884 10.5538C105.485 11.9927 105.491 13.611 104.901 15.0543L98.0734 31.7665C97.6323 32.8456 96.881 33.7697 95.9146 34.4217C94.9481 35.0738 93.81 35.4245 92.6442 35.4296C91.4783 35.4346 90.3372 35.0938 89.3652 34.4501C88.3931 33.8064 87.6339 32.8889 87.1834 31.8136L84.4884 25.3707L16.6184 54.3715C15.9065 54.6758 15.1415 54.837 14.3673 54.8458C13.593 54.8545 12.8247 54.7107 12.106 54.4225C11.3873 54.1343 10.7325 53.7074 10.1788 53.1661C9.62515 52.6249 9.18351 51.9798 8.87913 51.2679C8.57474 50.5559 8.41357 49.791 8.40481 49.0168C8.39604 48.2425 8.53986 47.4741 8.82806 46.7555C9.11625 46.0368 9.54317 45.382 10.0844 44.8283C10.6257 44.2746 11.2707 43.833 11.9827 43.5286L79.9391 14.4965L77.2913 8.17145C76.8382 7.09394 76.7158 5.90603 76.9397 4.75877C77.1635 3.61151 77.7235 2.55675 78.5484 1.7286ZM100.179 43.0572C102.263 43.0572 104.261 43.885 105.735 45.3585C107.208 46.832 108.036 48.8305 108.036 50.9143V105.914C108.036 106.956 107.622 107.955 106.886 108.692C106.149 109.429 105.15 109.843 104.108 109.843H84.4648C83.4229 109.843 82.4237 109.429 81.6869 108.692C80.9502 107.955 80.5363 106.956 80.5363 105.914V50.9143C80.5363 48.8305 81.3641 46.832 82.8376 45.3585C84.3111 43.885 86.3096 43.0572 88.3934 43.0572H100.179ZM66.4484 57.1372C64.974 55.6664 62.976 54.8412 60.8934 54.8429H49.1077C47.0239 54.8429 45.0254 55.6707 43.5519 57.1442C42.0784 58.6177 41.2506 60.6162 41.2506 62.7V105.914C41.2506 106.956 41.6645 107.955 42.4012 108.692C43.138 109.429 44.1372 109.843 45.1791 109.843H64.822C65.8639 109.843 66.8632 109.429 67.5999 108.692C68.3367 107.955 68.7506 106.956 68.7506 105.914V62.7C68.7514 61.667 68.5485 60.6439 68.1534 59.6894C67.7584 58.7348 67.179 57.8675 66.4484 57.1372ZM21.6077 66.6286C23.6915 66.6286 25.69 67.4564 27.1635 68.9299C28.637 70.4034 29.4648 72.4019 29.4648 74.4857V105.914C29.4648 106.956 29.0509 107.955 28.3142 108.692C27.5774 109.429 26.5782 109.843 25.5363 109.843H5.89342C4.85149 109.843 3.85225 109.429 3.1155 108.692C2.37875 107.955 1.96484 106.956 1.96484 105.914V74.4857C1.96484 72.4019 2.79265 70.4034 4.26615 68.9299C5.73965 67.4564 7.73814 66.6286 9.82199 66.6286H21.6077Z" fill="#555555"/>
</g>
<defs>
<clipPath id="clip0_276_3029">
<rect width="110" height="110" fill="white"/>
</clipPath>
</defs>
</svg>
